<mxfile host="app.diagrams.net" modified="2023-09-22T15:21:30.019Z" agent="Mozilla/5.0 (Windows NT 10.0; Win64; x64; rv:109.0) Gecko/20100101 Firefox/117.0" etag="yiiu83uVNihSQFA2t_D_" version="21.6.8" type="device">
  <diagram name="Pagina-1" id="opsYDkwGyhG0ZiY4xurV">
    <mxGraphModel dx="1762" dy="1992" grid="1" gridSize="10" guides="1" tooltips="1" connect="1" arrows="1" fold="1" page="1" pageScale="1" pageWidth="827" pageHeight="1169" math="0" shadow="0">
      <root>
        <mxCell id="0" />
        <mxCell id="1" parent="0" />
        <mxCell id="xywXRpfewnDEHFDwTRsP-21" value="" style="endArrow=none;html=1;rounded=0;exitX=0.5;exitY=1;exitDx=0;exitDy=0;" edge="1" parent="1">
          <mxGeometry width="50" height="50" relative="1" as="geometry">
            <mxPoint x="837" y="109" as="sourcePoint" />
            <mxPoint x="837" y="166" as="targetPoint" />
          </mxGeometry>
        </mxCell>
        <mxCell id="wEoxP2lr9VhXcSe8FNW--11" value="" style="edgeStyle=orthogonalEdgeStyle;rounded=0;orthogonalLoop=1;jettySize=auto;html=1;" parent="1" source="wEoxP2lr9VhXcSe8FNW--1" target="wEoxP2lr9VhXcSe8FNW--10" edge="1">
          <mxGeometry relative="1" as="geometry" />
        </mxCell>
        <mxCell id="wEoxP2lr9VhXcSe8FNW--21" value="" style="edgeStyle=orthogonalEdgeStyle;rounded=0;orthogonalLoop=1;jettySize=auto;html=1;" parent="1" source="wEoxP2lr9VhXcSe8FNW--1" target="wEoxP2lr9VhXcSe8FNW--10" edge="1">
          <mxGeometry relative="1" as="geometry" />
        </mxCell>
        <mxCell id="wEoxP2lr9VhXcSe8FNW--23" value="" style="edgeStyle=orthogonalEdgeStyle;rounded=0;orthogonalLoop=1;jettySize=auto;html=1;" parent="1" source="wEoxP2lr9VhXcSe8FNW--1" target="wEoxP2lr9VhXcSe8FNW--22" edge="1">
          <mxGeometry relative="1" as="geometry" />
        </mxCell>
        <mxCell id="wEoxP2lr9VhXcSe8FNW--1" value="1. Welcome" style="rounded=1;whiteSpace=wrap;html=1;" parent="1" vertex="1">
          <mxGeometry x="1040" y="-530" width="120" height="60" as="geometry" />
        </mxCell>
        <mxCell id="wEoxP2lr9VhXcSe8FNW--20" value="" style="edgeStyle=orthogonalEdgeStyle;rounded=0;orthogonalLoop=1;jettySize=auto;html=1;" parent="1" source="wEoxP2lr9VhXcSe8FNW--10" edge="1">
          <mxGeometry relative="1" as="geometry">
            <mxPoint x="751" y="-330" as="targetPoint" />
          </mxGeometry>
        </mxCell>
        <mxCell id="wEoxP2lr9VhXcSe8FNW--10" value="&lt;div&gt;Express preferences&lt;/div&gt;" style="ellipse;whiteSpace=wrap;html=1;rounded=1;" parent="1" vertex="1">
          <mxGeometry x="884" y="-450" width="146" height="100" as="geometry" />
        </mxCell>
        <mxCell id="wEoxP2lr9VhXcSe8FNW--31" style="edgeStyle=orthogonalEdgeStyle;rounded=0;orthogonalLoop=1;jettySize=auto;html=1;exitX=0.956;exitY=0.516;exitDx=0;exitDy=0;exitPerimeter=0;" parent="1" source="wEoxP2lr9VhXcSe8FNW--19" target="wEoxP2lr9VhXcSe8FNW--29" edge="1">
          <mxGeometry relative="1" as="geometry">
            <Array as="points">
              <mxPoint x="794" y="-290" />
            </Array>
          </mxGeometry>
        </mxCell>
        <mxCell id="wEoxP2lr9VhXcSe8FNW--33" value="" style="edgeStyle=orthogonalEdgeStyle;rounded=0;orthogonalLoop=1;jettySize=auto;html=1;" parent="1" source="wEoxP2lr9VhXcSe8FNW--19" target="wEoxP2lr9VhXcSe8FNW--32" edge="1">
          <mxGeometry relative="1" as="geometry" />
        </mxCell>
        <mxCell id="wEoxP2lr9VhXcSe8FNW--19" value="Food expressed?" style="rhombus;whiteSpace=wrap;html=1;rounded=1;" parent="1" vertex="1">
          <mxGeometry x="704" y="-334" width="94" height="90" as="geometry" />
        </mxCell>
        <mxCell id="wEoxP2lr9VhXcSe8FNW--30" value="" style="edgeStyle=orthogonalEdgeStyle;rounded=0;orthogonalLoop=1;jettySize=auto;html=1;" parent="1" source="wEoxP2lr9VhXcSe8FNW--22" target="wEoxP2lr9VhXcSe8FNW--29" edge="1">
          <mxGeometry relative="1" as="geometry" />
        </mxCell>
        <mxCell id="wEoxP2lr9VhXcSe8FNW--22" value="Expresses no preferences" style="ellipse;whiteSpace=wrap;html=1;rounded=1;" parent="1" vertex="1">
          <mxGeometry x="1184" y="-450" width="80" height="80" as="geometry" />
        </mxCell>
        <mxCell id="wEoxP2lr9VhXcSe8FNW--26" value="no" style="text;html=1;align=center;verticalAlign=middle;resizable=0;points=[];autosize=1;strokeColor=none;fillColor=none;" parent="1" vertex="1">
          <mxGeometry x="964" y="-320" width="40" height="30" as="geometry" />
        </mxCell>
        <mxCell id="wEoxP2lr9VhXcSe8FNW--37" style="edgeStyle=orthogonalEdgeStyle;rounded=0;orthogonalLoop=1;jettySize=auto;html=1;entryX=0.5;entryY=0;entryDx=0;entryDy=0;" parent="1" source="wEoxP2lr9VhXcSe8FNW--29" target="wEoxP2lr9VhXcSe8FNW--48" edge="1">
          <mxGeometry relative="1" as="geometry" />
        </mxCell>
        <mxCell id="wEoxP2lr9VhXcSe8FNW--29" value="2. Ask food" style="whiteSpace=wrap;html=1;rounded=1;" parent="1" vertex="1">
          <mxGeometry x="1164" y="-330" width="120" height="60" as="geometry" />
        </mxCell>
        <mxCell id="wEoxP2lr9VhXcSe8FNW--32" value="Area expressed?" style="rhombus;whiteSpace=wrap;html=1;rounded=1;" parent="1" vertex="1">
          <mxGeometry x="697" y="-140" width="107" height="103" as="geometry" />
        </mxCell>
        <mxCell id="wEoxP2lr9VhXcSe8FNW--46" value="no" style="text;html=1;align=center;verticalAlign=middle;resizable=0;points=[];autosize=1;strokeColor=none;fillColor=none;" parent="1" vertex="1">
          <mxGeometry x="1004" y="-210" width="40" height="30" as="geometry" />
        </mxCell>
        <mxCell id="wEoxP2lr9VhXcSe8FNW--63" style="edgeStyle=orthogonalEdgeStyle;rounded=0;orthogonalLoop=1;jettySize=auto;html=1;exitX=0;exitY=0.5;exitDx=0;exitDy=0;entryX=1;entryY=0.5;entryDx=0;entryDy=0;" parent="1" source="wEoxP2lr9VhXcSe8FNW--48" target="wEoxP2lr9VhXcSe8FNW--53" edge="1">
          <mxGeometry relative="1" as="geometry" />
        </mxCell>
        <mxCell id="wEoxP2lr9VhXcSe8FNW--48" value="Reply food" style="ellipse;whiteSpace=wrap;html=1;" parent="1" vertex="1">
          <mxGeometry x="1174" y="-210" width="100" height="60" as="geometry" />
        </mxCell>
        <mxCell id="wEoxP2lr9VhXcSe8FNW--65" style="edgeStyle=orthogonalEdgeStyle;rounded=0;orthogonalLoop=1;jettySize=auto;html=1;exitX=0;exitY=0.5;exitDx=0;exitDy=0;entryX=1;entryY=0.5;entryDx=0;entryDy=0;" parent="1" source="wEoxP2lr9VhXcSe8FNW--53" target="wEoxP2lr9VhXcSe8FNW--57" edge="1">
          <mxGeometry relative="1" as="geometry" />
        </mxCell>
        <mxCell id="wEoxP2lr9VhXcSe8FNW--71" style="edgeStyle=orthogonalEdgeStyle;rounded=0;orthogonalLoop=1;jettySize=auto;html=1;entryX=1;entryY=0.5;entryDx=0;entryDy=0;exitX=0.488;exitY=0.939;exitDx=0;exitDy=0;exitPerimeter=0;" parent="1" source="wEoxP2lr9VhXcSe8FNW--53" target="wEoxP2lr9VhXcSe8FNW--32" edge="1">
          <mxGeometry relative="1" as="geometry">
            <Array as="points">
              <mxPoint x="1083" y="-88" />
              <mxPoint x="1064" y="-88" />
            </Array>
          </mxGeometry>
        </mxCell>
        <mxCell id="wEoxP2lr9VhXcSe8FNW--53" value="Spelled correctly?" style="rhombus;whiteSpace=wrap;html=1;" parent="1" vertex="1">
          <mxGeometry x="1044" y="-220" width="80" height="80" as="geometry" />
        </mxCell>
        <mxCell id="wEoxP2lr9VhXcSe8FNW--57" value="3. Suggest spelling" style="rounded=1;whiteSpace=wrap;html=1;" parent="1" vertex="1">
          <mxGeometry x="877.5" y="-210" width="120" height="60" as="geometry" />
        </mxCell>
        <mxCell id="wEoxP2lr9VhXcSe8FNW--59" value="Confirm" style="ellipse;whiteSpace=wrap;html=1;" parent="1" vertex="1">
          <mxGeometry x="804" y="-155" width="66" height="50" as="geometry" />
        </mxCell>
        <mxCell id="wEoxP2lr9VhXcSe8FNW--60" value="Deny" style="ellipse;whiteSpace=wrap;html=1;" parent="1" vertex="1">
          <mxGeometry x="804" y="-250" width="66" height="50" as="geometry" />
        </mxCell>
        <mxCell id="wEoxP2lr9VhXcSe8FNW--72" value="yes" style="text;html=1;align=center;verticalAlign=middle;resizable=0;points=[];autosize=1;strokeColor=none;fillColor=none;" parent="1" vertex="1">
          <mxGeometry x="934" y="-122" width="40" height="30" as="geometry" />
        </mxCell>
        <mxCell id="wEoxP2lr9VhXcSe8FNW--75" style="edgeStyle=orthogonalEdgeStyle;rounded=0;orthogonalLoop=1;jettySize=auto;html=1;exitX=1;exitY=1;exitDx=0;exitDy=0;" parent="1" source="wEoxP2lr9VhXcSe8FNW--32" target="wEoxP2lr9VhXcSe8FNW--80" edge="1">
          <mxGeometry relative="1" as="geometry">
            <mxPoint x="834" y="-62" as="sourcePoint" />
          </mxGeometry>
        </mxCell>
        <mxCell id="wEoxP2lr9VhXcSe8FNW--76" value="" style="edgeStyle=orthogonalEdgeStyle;rounded=0;orthogonalLoop=1;jettySize=auto;html=1;exitX=0.5;exitY=1;exitDx=0;exitDy=0;" parent="1" source="wEoxP2lr9VhXcSe8FNW--32" edge="1">
          <mxGeometry relative="1" as="geometry">
            <mxPoint x="750" y="120" as="targetPoint" />
            <mxPoint x="794.0666666666671" y="-22.06666666666706" as="sourcePoint" />
            <Array as="points">
              <mxPoint x="750" y="80" />
              <mxPoint x="750" y="120" />
            </Array>
          </mxGeometry>
        </mxCell>
        <mxCell id="xywXRpfewnDEHFDwTRsP-23" style="edgeStyle=orthogonalEdgeStyle;rounded=0;orthogonalLoop=1;jettySize=auto;html=1;exitX=0.5;exitY=1;exitDx=0;exitDy=0;entryX=0.5;entryY=0;entryDx=0;entryDy=0;" edge="1" parent="1" source="wEoxP2lr9VhXcSe8FNW--80" target="xywXRpfewnDEHFDwTRsP-11">
          <mxGeometry relative="1" as="geometry" />
        </mxCell>
        <mxCell id="wEoxP2lr9VhXcSe8FNW--80" value="4. Ask area" style="whiteSpace=wrap;html=1;rounded=1;" parent="1" vertex="1">
          <mxGeometry x="1174" y="-92" width="120" height="60" as="geometry" />
        </mxCell>
        <mxCell id="wEoxP2lr9VhXcSe8FNW--94" value="yes" style="text;html=1;align=center;verticalAlign=middle;resizable=0;points=[];autosize=1;strokeColor=none;fillColor=none;" parent="1" vertex="1">
          <mxGeometry x="934" y="140" width="40" height="30" as="geometry" />
        </mxCell>
        <mxCell id="wEoxP2lr9VhXcSe8FNW--135" style="edgeStyle=orthogonalEdgeStyle;rounded=0;orthogonalLoop=1;jettySize=auto;html=1;exitX=1;exitY=1;exitDx=0;exitDy=0;" parent="1" source="wEoxP2lr9VhXcSe8FNW--117" target="wEoxP2lr9VhXcSe8FNW--120" edge="1">
          <mxGeometry relative="1" as="geometry" />
        </mxCell>
        <mxCell id="wEoxP2lr9VhXcSe8FNW--117" value="Price expressed?" style="rhombus;whiteSpace=wrap;html=1;rounded=1;" parent="1" vertex="1">
          <mxGeometry x="697" y="115.5" width="106" height="99.5" as="geometry" />
        </mxCell>
        <mxCell id="wEoxP2lr9VhXcSe8FNW--119" style="edgeStyle=orthogonalEdgeStyle;rounded=0;orthogonalLoop=1;jettySize=auto;html=1;entryX=0.5;entryY=0;entryDx=0;entryDy=0;" parent="1" source="wEoxP2lr9VhXcSe8FNW--120" target="wEoxP2lr9VhXcSe8FNW--123" edge="1">
          <mxGeometry relative="1" as="geometry" />
        </mxCell>
        <mxCell id="wEoxP2lr9VhXcSe8FNW--120" value="6. Ask price" style="whiteSpace=wrap;html=1;rounded=1;" parent="1" vertex="1">
          <mxGeometry x="1164" y="160" width="120" height="60" as="geometry" />
        </mxCell>
        <mxCell id="wEoxP2lr9VhXcSe8FNW--123" value="Reply food" style="ellipse;whiteSpace=wrap;html=1;" parent="1" vertex="1">
          <mxGeometry x="1174" y="258" width="100" height="60" as="geometry" />
        </mxCell>
        <mxCell id="wEoxP2lr9VhXcSe8FNW--136" value="no" style="text;html=1;align=center;verticalAlign=middle;resizable=0;points=[];autosize=1;strokeColor=none;fillColor=none;" parent="1" vertex="1">
          <mxGeometry x="994" y="182" width="40" height="30" as="geometry" />
        </mxCell>
        <mxCell id="wEoxP2lr9VhXcSe8FNW--138" value="yes" style="text;html=1;align=center;verticalAlign=middle;resizable=0;points=[];autosize=1;strokeColor=none;fillColor=none;" parent="1" vertex="1">
          <mxGeometry x="697" y="-212" width="40" height="30" as="geometry" />
        </mxCell>
        <mxCell id="wEoxP2lr9VhXcSe8FNW--139" value="yes" style="text;html=1;align=center;verticalAlign=middle;resizable=0;points=[];autosize=1;strokeColor=none;fillColor=none;" parent="1" vertex="1">
          <mxGeometry x="710" y="18" width="40" height="30" as="geometry" />
        </mxCell>
        <mxCell id="wEoxP2lr9VhXcSe8FNW--140" value="yes" style="text;html=1;align=center;verticalAlign=middle;resizable=0;points=[];autosize=1;strokeColor=none;fillColor=none;" parent="1" vertex="1">
          <mxGeometry x="710" y="300" width="40" height="30" as="geometry" />
        </mxCell>
        <mxCell id="wEoxP2lr9VhXcSe8FNW--144" style="edgeStyle=orthogonalEdgeStyle;rounded=0;orthogonalLoop=1;jettySize=auto;html=1;entryX=0.5;entryY=0;entryDx=0;entryDy=0;exitX=0;exitY=0.75;exitDx=0;exitDy=0;" parent="1" source="wEoxP2lr9VhXcSe8FNW--141" target="wEoxP2lr9VhXcSe8FNW--142" edge="1">
          <mxGeometry relative="1" as="geometry">
            <mxPoint x="765" y="685" as="sourcePoint" />
          </mxGeometry>
        </mxCell>
        <mxCell id="wEoxP2lr9VhXcSe8FNW--141" value="8. Suggest restaurant" style="rounded=1;whiteSpace=wrap;html=1;" parent="1" vertex="1">
          <mxGeometry x="759.5" y="640" width="141" height="60" as="geometry" />
        </mxCell>
        <mxCell id="wEoxP2lr9VhXcSe8FNW--148" value="" style="edgeStyle=orthogonalEdgeStyle;rounded=0;orthogonalLoop=1;jettySize=auto;html=1;" parent="1" source="wEoxP2lr9VhXcSe8FNW--142" target="wEoxP2lr9VhXcSe8FNW--147" edge="1">
          <mxGeometry relative="1" as="geometry" />
        </mxCell>
        <mxCell id="wEoxP2lr9VhXcSe8FNW--142" value="&lt;div&gt;Thanks&lt;/div&gt;" style="ellipse;whiteSpace=wrap;html=1;" parent="1" vertex="1">
          <mxGeometry x="659" y="750" width="80" height="60" as="geometry" />
        </mxCell>
        <mxCell id="wEoxP2lr9VhXcSe8FNW--143" value="Request&amp;nbsp; address" style="ellipse;whiteSpace=wrap;html=1;" parent="1" vertex="1">
          <mxGeometry x="851" y="750" width="100" height="60" as="geometry" />
        </mxCell>
        <mxCell id="wEoxP2lr9VhXcSe8FNW--147" value="11. end program. thank user for participation" style="whiteSpace=wrap;html=1;" parent="1" vertex="1">
          <mxGeometry x="639" y="856" width="120" height="60" as="geometry" />
        </mxCell>
        <mxCell id="wEoxP2lr9VhXcSe8FNW--150" value="Request phone" style="ellipse;whiteSpace=wrap;html=1;" parent="1" vertex="1">
          <mxGeometry x="755" y="750" width="80" height="60" as="geometry" />
        </mxCell>
        <mxCell id="wEoxP2lr9VhXcSe8FNW--168" style="edgeStyle=orthogonalEdgeStyle;rounded=0;orthogonalLoop=1;jettySize=auto;html=1;entryX=0.5;entryY=0;entryDx=0;entryDy=0;exitX=0.5;exitY=1;exitDx=0;exitDy=0;" parent="1" source="wEoxP2lr9VhXcSe8FNW--152" target="wEoxP2lr9VhXcSe8FNW--167" edge="1">
          <mxGeometry relative="1" as="geometry">
            <Array as="points">
              <mxPoint x="1209" y="715" />
            </Array>
          </mxGeometry>
        </mxCell>
        <mxCell id="wEoxP2lr9VhXcSe8FNW--152" value="Other dialog act" style="ellipse;whiteSpace=wrap;html=1;" parent="1" vertex="1">
          <mxGeometry x="1161" y="660" width="96" height="50" as="geometry" />
        </mxCell>
        <mxCell id="wEoxP2lr9VhXcSe8FNW--164" value="" style="edgeStyle=orthogonalEdgeStyle;rounded=0;orthogonalLoop=1;jettySize=auto;html=1;entryX=0.168;entryY=0.014;entryDx=0;entryDy=0;entryPerimeter=0;" parent="1" source="wEoxP2lr9VhXcSe8FNW--159" edge="1" target="wEoxP2lr9VhXcSe8FNW--167">
          <mxGeometry relative="1" as="geometry">
            <mxPoint x="1095" y="865" as="targetPoint" />
          </mxGeometry>
        </mxCell>
        <mxCell id="wEoxP2lr9VhXcSe8FNW--166" style="edgeStyle=orthogonalEdgeStyle;rounded=0;orthogonalLoop=1;jettySize=auto;html=1;entryX=0;entryY=0.5;entryDx=0;entryDy=0;exitX=0.5;exitY=1;exitDx=0;exitDy=0;" parent="1" source="wEoxP2lr9VhXcSe8FNW--159" target="wEoxP2lr9VhXcSe8FNW--169" edge="1">
          <mxGeometry relative="1" as="geometry">
            <mxPoint x="1195" y="736" as="targetPoint" />
          </mxGeometry>
        </mxCell>
        <mxCell id="wEoxP2lr9VhXcSe8FNW--159" value="Information known?" style="rhombus;whiteSpace=wrap;html=1;" parent="1" vertex="1">
          <mxGeometry x="995" y="735" width="86" height="90" as="geometry" />
        </mxCell>
        <mxCell id="wEoxP2lr9VhXcSe8FNW--162" value="yes" style="text;html=1;align=center;verticalAlign=middle;resizable=0;points=[];autosize=1;strokeColor=none;fillColor=none;" parent="1" vertex="1">
          <mxGeometry x="1172.5" y="875" width="40" height="30" as="geometry" />
        </mxCell>
        <mxCell id="wEoxP2lr9VhXcSe8FNW--165" value="no" style="text;html=1;align=center;verticalAlign=middle;resizable=0;points=[];autosize=1;strokeColor=none;fillColor=none;" parent="1" vertex="1">
          <mxGeometry x="1102.5" y="746" width="40" height="30" as="geometry" />
        </mxCell>
        <mxCell id="wEoxP2lr9VhXcSe8FNW--167" value="10. Apologies; ask if they what to know something else." style="rounded=1;whiteSpace=wrap;html=1;" parent="1" vertex="1">
          <mxGeometry x="1149" y="799" width="120" height="60" as="geometry" />
        </mxCell>
        <mxCell id="wEoxP2lr9VhXcSe8FNW--169" value="9. Give information&lt;br&gt;ask if they want to know something else." style="rounded=1;whiteSpace=wrap;html=1;" parent="1" vertex="1">
          <mxGeometry x="1059" y="966" width="120" height="60" as="geometry" />
        </mxCell>
        <mxCell id="wEoxP2lr9VhXcSe8FNW--173" style="edgeStyle=orthogonalEdgeStyle;rounded=0;orthogonalLoop=1;jettySize=auto;html=1;entryX=0.5;entryY=1;entryDx=0;entryDy=0;" parent="1" target="wEoxP2lr9VhXcSe8FNW--150" edge="1">
          <mxGeometry relative="1" as="geometry">
            <mxPoint x="882.0423913043483" y="1095.04347826087" as="sourcePoint" />
          </mxGeometry>
        </mxCell>
        <mxCell id="wEoxP2lr9VhXcSe8FNW--174" style="edgeStyle=orthogonalEdgeStyle;rounded=0;orthogonalLoop=1;jettySize=auto;html=1;exitX=0.5;exitY=0;exitDx=0;exitDy=0;entryX=0.681;entryY=0.984;entryDx=0;entryDy=0;entryPerimeter=0;" parent="1" source="wEoxP2lr9VhXcSe8FNW--171" target="wEoxP2lr9VhXcSe8FNW--143" edge="1">
          <mxGeometry relative="1" as="geometry">
            <mxPoint x="901.5" y="1075" as="sourcePoint" />
          </mxGeometry>
        </mxCell>
        <mxCell id="wEoxP2lr9VhXcSe8FNW--177" style="edgeStyle=orthogonalEdgeStyle;rounded=0;orthogonalLoop=1;jettySize=auto;html=1;entryX=0.5;entryY=1;entryDx=0;entryDy=0;" parent="1" target="wEoxP2lr9VhXcSe8FNW--147" edge="1">
          <mxGeometry relative="1" as="geometry">
            <mxPoint x="882.0423913043483" y="1095.04347826087" as="sourcePoint" />
          </mxGeometry>
        </mxCell>
        <mxCell id="wEoxP2lr9VhXcSe8FNW--171" value="More info asked?" style="rhombus;whiteSpace=wrap;html=1;rounded=1;" parent="1" vertex="1">
          <mxGeometry x="881" y="1056" width="78" height="80" as="geometry" />
        </mxCell>
        <mxCell id="wEoxP2lr9VhXcSe8FNW--175" value="yes" style="text;html=1;align=center;verticalAlign=middle;resizable=0;points=[];autosize=1;strokeColor=none;fillColor=none;" parent="1" vertex="1">
          <mxGeometry x="1002" y="875" width="40" height="30" as="geometry" />
        </mxCell>
        <mxCell id="wEoxP2lr9VhXcSe8FNW--176" value="yes" style="text;html=1;align=center;verticalAlign=middle;resizable=0;points=[];autosize=1;strokeColor=none;fillColor=none;" parent="1" vertex="1">
          <mxGeometry x="757" y="926" width="40" height="30" as="geometry" />
        </mxCell>
        <mxCell id="wEoxP2lr9VhXcSe8FNW--178" value="no" style="text;html=1;align=center;verticalAlign=middle;resizable=0;points=[];autosize=1;strokeColor=none;fillColor=none;" parent="1" vertex="1">
          <mxGeometry x="650" y="996" width="40" height="30" as="geometry" />
        </mxCell>
        <mxCell id="xywXRpfewnDEHFDwTRsP-3" value="" style="endArrow=classic;html=1;rounded=0;exitX=0.5;exitY=1;exitDx=0;exitDy=0;entryX=1;entryY=0.5;entryDx=0;entryDy=0;" edge="1" parent="1" source="wEoxP2lr9VhXcSe8FNW--57" target="wEoxP2lr9VhXcSe8FNW--59">
          <mxGeometry width="50" height="50" relative="1" as="geometry">
            <mxPoint x="943.5" y="-100" as="sourcePoint" />
            <mxPoint x="993.5" y="-150" as="targetPoint" />
            <Array as="points">
              <mxPoint x="937.5" y="-130" />
            </Array>
          </mxGeometry>
        </mxCell>
        <mxCell id="xywXRpfewnDEHFDwTRsP-5" value="" style="endArrow=classic;html=1;rounded=0;exitX=0.5;exitY=0;exitDx=0;exitDy=0;entryX=1;entryY=0.5;entryDx=0;entryDy=0;" edge="1" parent="1" source="wEoxP2lr9VhXcSe8FNW--57" target="wEoxP2lr9VhXcSe8FNW--60">
          <mxGeometry width="50" height="50" relative="1" as="geometry">
            <mxPoint x="943.5" y="-100" as="sourcePoint" />
            <mxPoint x="993.5" y="-150" as="targetPoint" />
            <Array as="points">
              <mxPoint x="937.5" y="-225" />
            </Array>
          </mxGeometry>
        </mxCell>
        <mxCell id="xywXRpfewnDEHFDwTRsP-6" value="" style="endArrow=none;html=1;rounded=0;exitX=0.5;exitY=1;exitDx=0;exitDy=0;" edge="1" parent="1" source="wEoxP2lr9VhXcSe8FNW--59">
          <mxGeometry width="50" height="50" relative="1" as="geometry">
            <mxPoint x="834" y="-104" as="sourcePoint" />
            <mxPoint x="837" y="-89" as="targetPoint" />
          </mxGeometry>
        </mxCell>
        <mxCell id="xywXRpfewnDEHFDwTRsP-7" value="" style="endArrow=none;html=1;rounded=0;exitX=0.5;exitY=0;exitDx=0;exitDy=0;" edge="1" parent="1" source="wEoxP2lr9VhXcSe8FNW--60">
          <mxGeometry width="50" height="50" relative="1" as="geometry">
            <mxPoint x="930" y="-130" as="sourcePoint" />
            <mxPoint x="837" y="-290" as="targetPoint" />
          </mxGeometry>
        </mxCell>
        <mxCell id="xywXRpfewnDEHFDwTRsP-9" value="no" style="text;html=1;align=center;verticalAlign=middle;resizable=0;points=[];autosize=1;strokeColor=none;fillColor=none;" vertex="1" parent="1">
          <mxGeometry x="1004" y="8" width="40" height="30" as="geometry" />
        </mxCell>
        <mxCell id="xywXRpfewnDEHFDwTRsP-10" style="edgeStyle=orthogonalEdgeStyle;rounded=0;orthogonalLoop=1;jettySize=auto;html=1;exitX=0;exitY=0.5;exitDx=0;exitDy=0;entryX=1;entryY=0.5;entryDx=0;entryDy=0;" edge="1" parent="1" source="xywXRpfewnDEHFDwTRsP-11" target="xywXRpfewnDEHFDwTRsP-14">
          <mxGeometry relative="1" as="geometry" />
        </mxCell>
        <mxCell id="xywXRpfewnDEHFDwTRsP-11" value="Reply&amp;nbsp; area" style="ellipse;whiteSpace=wrap;html=1;" vertex="1" parent="1">
          <mxGeometry x="1184" y="8" width="100" height="60" as="geometry" />
        </mxCell>
        <mxCell id="xywXRpfewnDEHFDwTRsP-12" style="edgeStyle=orthogonalEdgeStyle;rounded=0;orthogonalLoop=1;jettySize=auto;html=1;exitX=0;exitY=0.5;exitDx=0;exitDy=0;entryX=1;entryY=0.5;entryDx=0;entryDy=0;" edge="1" parent="1" source="xywXRpfewnDEHFDwTRsP-14" target="xywXRpfewnDEHFDwTRsP-15">
          <mxGeometry relative="1" as="geometry" />
        </mxCell>
        <mxCell id="xywXRpfewnDEHFDwTRsP-13" style="edgeStyle=orthogonalEdgeStyle;rounded=0;orthogonalLoop=1;jettySize=auto;html=1;entryX=0.951;entryY=0.51;entryDx=0;entryDy=0;exitX=0.488;exitY=0.939;exitDx=0;exitDy=0;exitPerimeter=0;entryPerimeter=0;" edge="1" parent="1" source="xywXRpfewnDEHFDwTRsP-14" target="wEoxP2lr9VhXcSe8FNW--117">
          <mxGeometry relative="1" as="geometry">
            <Array as="points">
              <mxPoint x="1083" y="166" />
            </Array>
            <mxPoint x="804" y="130" as="targetPoint" />
          </mxGeometry>
        </mxCell>
        <mxCell id="xywXRpfewnDEHFDwTRsP-14" value="Spelled correctly?" style="rhombus;whiteSpace=wrap;html=1;" vertex="1" parent="1">
          <mxGeometry x="1044" y="-2" width="80" height="80" as="geometry" />
        </mxCell>
        <mxCell id="xywXRpfewnDEHFDwTRsP-15" value="5. Suggest spelling" style="rounded=1;whiteSpace=wrap;html=1;" vertex="1" parent="1">
          <mxGeometry x="877.5" y="8" width="120" height="60" as="geometry" />
        </mxCell>
        <mxCell id="xywXRpfewnDEHFDwTRsP-17" value="Deny" style="ellipse;whiteSpace=wrap;html=1;" vertex="1" parent="1">
          <mxGeometry x="804" y="-32" width="66" height="50" as="geometry" />
        </mxCell>
        <mxCell id="xywXRpfewnDEHFDwTRsP-16" value="Confirm" style="ellipse;whiteSpace=wrap;html=1;" vertex="1" parent="1">
          <mxGeometry x="804" y="63" width="66" height="50" as="geometry" />
        </mxCell>
        <mxCell id="xywXRpfewnDEHFDwTRsP-19" value="" style="endArrow=classic;html=1;rounded=0;exitX=0.5;exitY=1;exitDx=0;exitDy=0;entryX=1;entryY=0.5;entryDx=0;entryDy=0;" edge="1" parent="1" source="xywXRpfewnDEHFDwTRsP-15" target="xywXRpfewnDEHFDwTRsP-16">
          <mxGeometry width="50" height="50" relative="1" as="geometry">
            <mxPoint x="943.5" y="118" as="sourcePoint" />
            <mxPoint x="993.5" y="68" as="targetPoint" />
            <Array as="points">
              <mxPoint x="937.5" y="88" />
            </Array>
          </mxGeometry>
        </mxCell>
        <mxCell id="xywXRpfewnDEHFDwTRsP-20" value="" style="endArrow=classic;html=1;rounded=0;exitX=0.5;exitY=0;exitDx=0;exitDy=0;entryX=1;entryY=0.5;entryDx=0;entryDy=0;" edge="1" parent="1" source="xywXRpfewnDEHFDwTRsP-15" target="xywXRpfewnDEHFDwTRsP-17">
          <mxGeometry width="50" height="50" relative="1" as="geometry">
            <mxPoint x="943.5" y="118" as="sourcePoint" />
            <mxPoint x="993.5" y="68" as="targetPoint" />
            <Array as="points">
              <mxPoint x="937.5" y="-7" />
            </Array>
          </mxGeometry>
        </mxCell>
        <mxCell id="xywXRpfewnDEHFDwTRsP-35" value="" style="endArrow=none;html=1;rounded=0;exitX=0.5;exitY=0;exitDx=0;exitDy=0;" edge="1" parent="1" source="xywXRpfewnDEHFDwTRsP-17">
          <mxGeometry width="50" height="50" relative="1" as="geometry">
            <mxPoint x="837" y="-35" as="sourcePoint" />
            <mxPoint x="837" y="-63" as="targetPoint" />
          </mxGeometry>
        </mxCell>
        <mxCell id="xywXRpfewnDEHFDwTRsP-43" value="no" style="text;html=1;align=center;verticalAlign=middle;resizable=0;points=[];autosize=1;strokeColor=none;fillColor=none;" vertex="1" parent="1">
          <mxGeometry x="994" y="260" width="40" height="30" as="geometry" />
        </mxCell>
        <mxCell id="xywXRpfewnDEHFDwTRsP-44" style="edgeStyle=orthogonalEdgeStyle;rounded=0;orthogonalLoop=1;jettySize=auto;html=1;exitX=0;exitY=0.5;exitDx=0;exitDy=0;entryX=1;entryY=0.5;entryDx=0;entryDy=0;" edge="1" parent="1" target="xywXRpfewnDEHFDwTRsP-46">
          <mxGeometry relative="1" as="geometry">
            <mxPoint x="1174" y="290" as="sourcePoint" />
          </mxGeometry>
        </mxCell>
        <mxCell id="xywXRpfewnDEHFDwTRsP-45" style="edgeStyle=orthogonalEdgeStyle;rounded=0;orthogonalLoop=1;jettySize=auto;html=1;exitX=0;exitY=0.5;exitDx=0;exitDy=0;entryX=1;entryY=0.5;entryDx=0;entryDy=0;" edge="1" parent="1" source="xywXRpfewnDEHFDwTRsP-46" target="xywXRpfewnDEHFDwTRsP-47">
          <mxGeometry relative="1" as="geometry" />
        </mxCell>
        <mxCell id="xywXRpfewnDEHFDwTRsP-46" value="Spelled correctly?" style="rhombus;whiteSpace=wrap;html=1;" vertex="1" parent="1">
          <mxGeometry x="1034" y="250" width="80" height="80" as="geometry" />
        </mxCell>
        <mxCell id="xywXRpfewnDEHFDwTRsP-47" value="7. Suggest spelling" style="rounded=1;whiteSpace=wrap;html=1;" vertex="1" parent="1">
          <mxGeometry x="867.5" y="260" width="120" height="60" as="geometry" />
        </mxCell>
        <mxCell id="xywXRpfewnDEHFDwTRsP-48" value="Deny" style="ellipse;whiteSpace=wrap;html=1;" vertex="1" parent="1">
          <mxGeometry x="794" y="220" width="66" height="50" as="geometry" />
        </mxCell>
        <mxCell id="xywXRpfewnDEHFDwTRsP-49" value="Confirm" style="ellipse;whiteSpace=wrap;html=1;" vertex="1" parent="1">
          <mxGeometry x="797" y="315" width="66" height="50" as="geometry" />
        </mxCell>
        <mxCell id="xywXRpfewnDEHFDwTRsP-50" value="" style="endArrow=classic;html=1;rounded=0;exitX=0.5;exitY=1;exitDx=0;exitDy=0;entryX=1;entryY=0.5;entryDx=0;entryDy=0;" edge="1" parent="1" source="xywXRpfewnDEHFDwTRsP-47" target="xywXRpfewnDEHFDwTRsP-49">
          <mxGeometry width="50" height="50" relative="1" as="geometry">
            <mxPoint x="933.5" y="370" as="sourcePoint" />
            <mxPoint x="983.5" y="320" as="targetPoint" />
            <Array as="points">
              <mxPoint x="927.5" y="340" />
            </Array>
          </mxGeometry>
        </mxCell>
        <mxCell id="xywXRpfewnDEHFDwTRsP-51" value="" style="endArrow=classic;html=1;rounded=0;exitX=0.5;exitY=0;exitDx=0;exitDy=0;entryX=1;entryY=0.5;entryDx=0;entryDy=0;" edge="1" parent="1" source="xywXRpfewnDEHFDwTRsP-47" target="xywXRpfewnDEHFDwTRsP-48">
          <mxGeometry width="50" height="50" relative="1" as="geometry">
            <mxPoint x="933.5" y="370" as="sourcePoint" />
            <mxPoint x="983.5" y="320" as="targetPoint" />
            <Array as="points">
              <mxPoint x="927.5" y="245" />
            </Array>
          </mxGeometry>
        </mxCell>
        <mxCell id="xywXRpfewnDEHFDwTRsP-53" value="" style="endArrow=classic;html=1;rounded=0;exitX=1;exitY=0.75;exitDx=0;exitDy=0;entryX=0;entryY=0.5;entryDx=0;entryDy=0;" edge="1" parent="1" source="wEoxP2lr9VhXcSe8FNW--141" target="wEoxP2lr9VhXcSe8FNW--152">
          <mxGeometry width="50" height="50" relative="1" as="geometry">
            <mxPoint x="1495" y="735" as="sourcePoint" />
            <mxPoint x="1545" y="685" as="targetPoint" />
          </mxGeometry>
        </mxCell>
        <mxCell id="xywXRpfewnDEHFDwTRsP-54" value="" style="endArrow=classic;html=1;rounded=0;exitX=0.25;exitY=1;exitDx=0;exitDy=0;entryX=0.5;entryY=0;entryDx=0;entryDy=0;" edge="1" parent="1" source="wEoxP2lr9VhXcSe8FNW--141" target="wEoxP2lr9VhXcSe8FNW--150">
          <mxGeometry width="50" height="50" relative="1" as="geometry">
            <mxPoint x="1505" y="745" as="sourcePoint" />
            <mxPoint x="799" y="755" as="targetPoint" />
          </mxGeometry>
        </mxCell>
        <mxCell id="xywXRpfewnDEHFDwTRsP-55" value="" style="endArrow=classic;html=1;rounded=0;exitX=1;exitY=0.5;exitDx=0;exitDy=0;entryX=0;entryY=0.5;entryDx=0;entryDy=0;" edge="1" parent="1" source="wEoxP2lr9VhXcSe8FNW--143" target="wEoxP2lr9VhXcSe8FNW--159">
          <mxGeometry width="50" height="50" relative="1" as="geometry">
            <mxPoint x="938.3553390593274" y="798.7867965644036" as="sourcePoint" />
            <mxPoint x="1027" y="779" as="targetPoint" />
            <Array as="points" />
          </mxGeometry>
        </mxCell>
        <mxCell id="xywXRpfewnDEHFDwTRsP-56" value="" style="endArrow=classic;html=1;rounded=0;exitX=0.5;exitY=1;exitDx=0;exitDy=0;entryX=0.936;entryY=0.5;entryDx=0;entryDy=0;entryPerimeter=0;" edge="1" parent="1" source="wEoxP2lr9VhXcSe8FNW--169">
          <mxGeometry width="50" height="50" relative="1" as="geometry">
            <mxPoint x="1525" y="765" as="sourcePoint" />
            <mxPoint x="955.0079999999998" y="1095" as="targetPoint" />
            <Array as="points">
              <mxPoint x="1119" y="1095" />
            </Array>
          </mxGeometry>
        </mxCell>
        <mxCell id="xywXRpfewnDEHFDwTRsP-58" value="" style="endArrow=none;html=1;rounded=0;entryX=0.5;entryY=0;entryDx=0;entryDy=0;" edge="1" parent="1" target="xywXRpfewnDEHFDwTRsP-48">
          <mxGeometry width="50" height="50" relative="1" as="geometry">
            <mxPoint x="827" y="190" as="sourcePoint" />
            <mxPoint x="994" y="420" as="targetPoint" />
          </mxGeometry>
        </mxCell>
        <mxCell id="xywXRpfewnDEHFDwTRsP-60" value="" style="endArrow=none;html=1;rounded=0;exitX=0.5;exitY=1;exitDx=0;exitDy=0;" edge="1" parent="1" source="wEoxP2lr9VhXcSe8FNW--117">
          <mxGeometry width="50" height="50" relative="1" as="geometry">
            <mxPoint x="1134" y="480" as="sourcePoint" />
            <mxPoint x="830" y="440" as="targetPoint" />
            <Array as="points">
              <mxPoint x="750" y="440" />
            </Array>
          </mxGeometry>
        </mxCell>
        <mxCell id="xywXRpfewnDEHFDwTRsP-63" value="" style="endArrow=none;html=1;rounded=0;exitX=0.5;exitY=1;exitDx=0;exitDy=0;" edge="1" parent="1" source="wEoxP2lr9VhXcSe8FNW--167">
          <mxGeometry width="50" height="50" relative="1" as="geometry">
            <mxPoint x="1349" y="745" as="sourcePoint" />
            <mxPoint x="1115" y="1095" as="targetPoint" />
            <Array as="points">
              <mxPoint x="1209" y="1095" />
            </Array>
          </mxGeometry>
        </mxCell>
        <mxCell id="xywXRpfewnDEHFDwTRsP-68" value="Does a restaurant fit the requirements?" style="rhombus;whiteSpace=wrap;html=1;rounded=1;" vertex="1" parent="1">
          <mxGeometry x="735" y="460" width="190" height="99.5" as="geometry" />
        </mxCell>
        <mxCell id="xywXRpfewnDEHFDwTRsP-69" value="" style="endArrow=classic;html=1;rounded=0;exitX=0.5;exitY=1;exitDx=0;exitDy=0;entryX=0.5;entryY=0;entryDx=0;entryDy=0;" edge="1" parent="1" source="xywXRpfewnDEHFDwTRsP-49" target="xywXRpfewnDEHFDwTRsP-68">
          <mxGeometry width="50" height="50" relative="1" as="geometry">
            <mxPoint x="430" y="540" as="sourcePoint" />
            <mxPoint x="480" y="490" as="targetPoint" />
          </mxGeometry>
        </mxCell>
        <mxCell id="xywXRpfewnDEHFDwTRsP-71" value="" style="endArrow=none;html=1;rounded=0;entryX=0.5;entryY=1;entryDx=0;entryDy=0;" edge="1" parent="1" target="xywXRpfewnDEHFDwTRsP-46">
          <mxGeometry width="50" height="50" relative="1" as="geometry">
            <mxPoint x="830" y="440" as="sourcePoint" />
            <mxPoint x="650" y="340" as="targetPoint" />
            <Array as="points">
              <mxPoint x="1074" y="440" />
            </Array>
          </mxGeometry>
        </mxCell>
        <mxCell id="xywXRpfewnDEHFDwTRsP-72" value="yes" style="text;html=1;align=center;verticalAlign=middle;resizable=0;points=[];autosize=1;strokeColor=none;fillColor=none;" vertex="1" parent="1">
          <mxGeometry x="925" y="410" width="40" height="30" as="geometry" />
        </mxCell>
        <mxCell id="xywXRpfewnDEHFDwTRsP-73" value="" style="endArrow=classic;html=1;rounded=0;exitX=0.5;exitY=1;exitDx=0;exitDy=0;entryX=0.5;entryY=0;entryDx=0;entryDy=0;" edge="1" parent="1" source="xywXRpfewnDEHFDwTRsP-68" target="wEoxP2lr9VhXcSe8FNW--141">
          <mxGeometry width="50" height="50" relative="1" as="geometry">
            <mxPoint x="630" y="610" as="sourcePoint" />
            <mxPoint x="680" y="560" as="targetPoint" />
          </mxGeometry>
        </mxCell>
        <mxCell id="xywXRpfewnDEHFDwTRsP-74" value="yes" style="text;html=1;align=center;verticalAlign=middle;resizable=0;points=[];autosize=1;strokeColor=none;fillColor=none;" vertex="1" parent="1">
          <mxGeometry x="787" y="585" width="40" height="30" as="geometry" />
        </mxCell>
        <mxCell id="xywXRpfewnDEHFDwTRsP-75" value="" style="endArrow=classic;html=1;rounded=0;exitX=0;exitY=0.5;exitDx=0;exitDy=0;entryX=0;entryY=0.5;entryDx=0;entryDy=0;" edge="1" parent="1" source="xywXRpfewnDEHFDwTRsP-68" target="wEoxP2lr9VhXcSe8FNW--147">
          <mxGeometry width="50" height="50" relative="1" as="geometry">
            <mxPoint x="600" y="770" as="sourcePoint" />
            <mxPoint x="650" y="720" as="targetPoint" />
            <Array as="points">
              <mxPoint x="600" y="510" />
              <mxPoint x="600" y="886" />
            </Array>
          </mxGeometry>
        </mxCell>
        <mxCell id="xywXRpfewnDEHFDwTRsP-76" value="no" style="text;html=1;align=center;verticalAlign=middle;resizable=0;points=[];autosize=1;strokeColor=none;fillColor=none;" vertex="1" parent="1">
          <mxGeometry x="550" y="670" width="40" height="30" as="geometry" />
        </mxCell>
        <mxCell id="xywXRpfewnDEHFDwTRsP-77" value="yes" style="text;html=1;align=center;verticalAlign=middle;resizable=0;points=[];autosize=1;strokeColor=none;fillColor=none;" vertex="1" parent="1">
          <mxGeometry x="860" y="916" width="40" height="30" as="geometry" />
        </mxCell>
        <mxCell id="xywXRpfewnDEHFDwTRsP-78" value="Denies suggestion" style="ellipse;whiteSpace=wrap;html=1;" vertex="1" parent="1">
          <mxGeometry x="966" y="585" width="96" height="50" as="geometry" />
        </mxCell>
        <mxCell id="xywXRpfewnDEHFDwTRsP-80" value="" style="endArrow=classic;html=1;rounded=0;exitX=1;exitY=0.25;exitDx=0;exitDy=0;entryX=0.5;entryY=1;entryDx=0;entryDy=0;" edge="1" parent="1" source="wEoxP2lr9VhXcSe8FNW--141" target="xywXRpfewnDEHFDwTRsP-78">
          <mxGeometry width="50" height="50" relative="1" as="geometry">
            <mxPoint x="910" y="695" as="sourcePoint" />
            <mxPoint x="1171" y="695" as="targetPoint" />
            <Array as="points">
              <mxPoint x="1014" y="655" />
            </Array>
          </mxGeometry>
        </mxCell>
        <mxCell id="xywXRpfewnDEHFDwTRsP-81" value="" style="endArrow=classic;html=1;rounded=0;entryX=1;entryY=0.5;entryDx=0;entryDy=0;exitX=0.5;exitY=0;exitDx=0;exitDy=0;" edge="1" parent="1" source="xywXRpfewnDEHFDwTRsP-84" target="xywXRpfewnDEHFDwTRsP-68">
          <mxGeometry width="50" height="50" relative="1" as="geometry">
            <mxPoint x="1200" y="450" as="sourcePoint" />
            <mxPoint x="1195" y="450" as="targetPoint" />
            <Array as="points">
              <mxPoint x="1014" y="510" />
            </Array>
          </mxGeometry>
        </mxCell>
        <mxCell id="xywXRpfewnDEHFDwTRsP-83" value="" style="endArrow=classic;html=1;rounded=0;exitX=0.75;exitY=1;exitDx=0;exitDy=0;entryX=0;entryY=0;entryDx=0;entryDy=0;" edge="1" parent="1" source="wEoxP2lr9VhXcSe8FNW--141" target="wEoxP2lr9VhXcSe8FNW--143">
          <mxGeometry width="50" height="50" relative="1" as="geometry">
            <mxPoint x="350" y="870" as="sourcePoint" />
            <mxPoint x="400" y="820" as="targetPoint" />
          </mxGeometry>
        </mxCell>
        <mxCell id="xywXRpfewnDEHFDwTRsP-84" value="Update list of possible suggestions" style="ellipse;whiteSpace=wrap;html=1;" vertex="1" parent="1">
          <mxGeometry x="927" y="520" width="174" height="50" as="geometry" />
        </mxCell>
        <mxCell id="xywXRpfewnDEHFDwTRsP-85" value="" style="endArrow=none;html=1;rounded=0;exitX=0.5;exitY=0;exitDx=0;exitDy=0;entryX=0.5;entryY=1;entryDx=0;entryDy=0;" edge="1" parent="1" source="xywXRpfewnDEHFDwTRsP-78" target="xywXRpfewnDEHFDwTRsP-84">
          <mxGeometry width="50" height="50" relative="1" as="geometry">
            <mxPoint x="600" y="640" as="sourcePoint" />
            <mxPoint x="650" y="590" as="targetPoint" />
          </mxGeometry>
        </mxCell>
      </root>
    </mxGraphModel>
  </diagram>
</mxfile>
